<?xml version="1.0" encoding="UTF-8"?>
<svg id="Layer_1" data-name="Layer 1" xmlns="http://www.w3.org/2000/svg" xmlns:xlink="http://www.w3.org/1999/xlink" viewBox="0 0 219.1 226.27">
  <defs>
    <style>
      .cls-1 {
        fill: url(#linear-gradient);
      }

      .cls-1, .cls-2 {
        stroke-width: 0px;
      }

      .cls-2 {
        fill: none;
      }

      .cls-3 {
        clip-path: url(#clippath);
      }
    </style>
    <clipPath id="clippath">
      <path class="cls-2" d="M137.13.42c-.11,0-.23-.02-.34-.03.11,0,.23.02.34.03M141.63,36.62c.98,1.72-1.4,7.35-6.72,6.12-15.37-7.68-55.16-32.4-30.16-40.06q-5.13,1.1-15.13,4.36c-16.15,6.49,3.26,23.73,13.31,30.64,2.62,2.24-2.4,8.93-8.26,6.96-10.45-7.42-30.94-24.68-16.21-32.87-3.4,1.68-10.03,5.46-13.19,7.55-15.85,13.99,21.59,37.1,38.27,47.03,3.94,2.29,1.6,11.36-6.35,9.14-17.73-10.61-55.26-33.59-41.58-49-3.41,2.98-7.77,7.18-10.98,10.38-11.92,21.14,39.75,48.46,66.45,61.96,5.75,3.02,2.94,12.9-4.99,10.42-27.98-14.19-78.64-40.93-69.18-63.1-2.82,3.85-6.01,8.8-8.37,12.97-5.5,15.83,18.63,31.62,34.27,43,3.05,3.16,1.79,12.38-5.59,9.98-15.29-11.03-37.74-25.7-34.12-41.76-3.95,11.51-9.7,18.93.84,31.12,2.23,3.6,7.76,7.12,10.67,12.02,1.03,3,.5,10.42-4.04,8.17-14.15-12.94-15.21-19.41-15.09-24.45-.58,4.53-1.05,10.62-1.33,15.18,4.91,21.72,29.06,33.73,54.89,49.09,3.43,1.33,6.82,11.44-1.92,8.88-25.41-15.12-45.85-25.08-52.57-45.97.44,4.64,1.3,10.34,2.28,14.92,3.49,16.15,31.19,26.02,28.09,35.16-.35.15-.82.36-1.17.51-10.88-7.14-19.44-14.26-23.73-24.12,8.51,38.21,64.44,48.29,58.18,56.19-20.65-6.73-38.21-20.42-46.23-31.02,14.99,25.05,43.22,38.57,80.36,49.41,3.9,1.11,6.84,1.19,10.28-.27l.2-1.3c-5.96-2.25-33.18-7.82-34.65-13.36.86-1.53,1.26-2.23,4.89-1.28,17.76,6.32,49.66,18.68,66.17,13.18.84-.38,3.18-1.41,4.21-2.57-.29-.22-.68-.52-.97-.74-33.55-2.03-75.66-18.47-104.41-34.87-.89-.69-2.74-2.13-3.5-4.29-.02-.05-1.75-5.36,3.5-3.42,6.52,3.05,61.69,34.79,64.19,21.69.79-2.7.29-3.59-3.01-5.33-11.02-4.64-24.66-7.25-33.71-14.81-.46-.82-2.28-7.81,5.94-5.66,13.84,6.17,28.49,11.71,43.04,16.15,6.48.88,7.2-1.43,9.41-5.74.01-2.1.03-3.76-3.59-5.22-12.88-1.84-124.23-48.26-91.17-54.14,20.62,14.14,49.03,28.27,78.37,38.79,7.75,2.82,13.29-9.99,5.49-13.19-20.06-8.09-41.39-14.97-57.39-26.98-1.51-2.88-.72-10.6,7.01-8.3,29.84,16.07,65.53,30.37,100.12,37.25,3.35-.02,5.98-3.63,6.59-7.57,1.36-8.97-9.72-6.88-15.53-9.39-14.38-3.68-29.14-8.57-43.43-14.24-1.19-.62-2.42-1.26-3.22-3.13-1.49-3.49,1.4-9.35,7.47-7.61,12.77,5.06,25.93,9.49,39.93,13.12,2.41-.39,4.31-.7,5.47-4.39,1.03-4.16,1.16-7.89-3.43-9.77-20.32-5.84-42.14-12.92-60.55-23.17-2.16-2.61-.54-10.21,6.84-8.46,6.13,2.92,12.49,5.71,18.98,8.33,4.38,1.21,6.37-1.85,7.54-5.77.57-3.44.31-4.65-2.58-6.63-13.73-5.93-27.49-11.47-38.37-19.24-1.23-2.24,2.09-8.42,8.07-6.66,19.08,11.15,43.77,21.53,67.05,27.48,6.72,1.72,12.88,2.95,18.41,3.73,3.18.02,2.32-4.73,1.6-7.57-1.16-3.38-1.8-4.44-4.06-5.48-4.79-.68-10.13-1.75-15.96-3.24-11.55-3.27-24.25-6.77-35.06-12.58-1.66-2.11.21-7.71,5.07-6.96,5.48,2.36,11.17,4.54,16.87,6.43,2.17.09,2.73-.46,3.3-3.29.21-2.11.21-5.76-2.2-6.97-7.86-2.62-15.67-5.9-23.3-10.11.36-3.56,3.91-4.71,6.06-4.6,8.53,4.32,18.34,8.06,27.8,10.23.23-.26.53-.62.76-.88-.76-3.08-2.73-8.3-6.25-8.72-12.13-1.63-45.81-22.05-18.12-19.14-2.68-1.5-4.91-1.96-8.29-2.65-26.69-4.46-16.24,9.83-2.73,17.71-.1.18-2.51,4.37-7.78,3.62-13.32-7.19-30.41-25.05-2.91-23.06C133.17.13,129.94,0,127.07,0c-37.32,0-13.61,21.48,14.56,36.62"/>
    </clipPath>
    <linearGradient id="linear-gradient" x1="-211.44" y1="420.96" x2="-210.33" y2="420.96" gradientTransform="translate(-71152.84 35781.46) rotate(90) scale(169.28 -169.28)" gradientUnits="userSpaceOnUse">
      <stop offset="0" stop-color="#103783"/>
      <stop offset="1" stop-color="#60efff"/>
    </linearGradient>
  </defs>
  <g class="cls-3">
    <rect class="cls-1" x="-33.52" y="-19.5" width="285.64" height="264.56" transform="translate(-36.44 171.34) rotate(-67.79)"/>
  </g>
</svg>